<svg enable-background="new 0 0 379.9 321.8" viewBox="0 0 379.9 321.8" xmlns="http://www.w3.org/2000/svg"><g fill="#a09999"><path d="m334.4 31.7h-10.5v-20.8c0-2.8-2.2-5-5-5s-5 2.2-5 5v20.9h-41.6v-20.9c0-2.8-2.2-5-5-5s-5 2.2-5 5v20.9h-41.6v-20.9c0-2.8-2.2-5-5-5s-5 2.2-5 5v20.9h-41.6v-20.9c0-2.8-2.2-5-5-5s-5 2.2-5 5v20.9h-41.6v-20.9c0-2.8-2.2-5-5-5s-5 2.2-5 5v20.9h-41.5v-20.9c0-2.8-2.2-5-5-5s-5 2.2-5 5v20.9h-10.5c-22.7 0-41.2 18.5-41.2 41.2v201.8c0 22.7 18.5 41.2 41.2 41.2h288.9c22.7 0 41.2-18.5 41.2-41.2v-201.9c0-22.7-18.5-41.2-41.2-41.2zm-288.9 10h10.5v20.9c0 2.8 2.2 5 5 5s5-2.2 5-5v-20.9h41.6v20.9c0 2.8 2.2 5 5 5s5-2.2 5-5v-20.9h41.6v20.9c0 2.8 2.2 5 5 5s5-2.2 5-5v-20.9h41.6v20.9c0 2.8 2.2 5 5 5s5-2.2 5-5v-20.9h41.6v20.9c0 2.8 2.2 5 5 5s5-2.2 5-5v-20.9h41.6v20.9c0 2.8 2.2 5 5 5s5-2.2 5-5v-20.9h10.5c17.2 0 31.2 14 31.2 31.2v35.2h-351.4v-35.2c0-17.2 14-31.2 31.2-31.2zm288.9 264.2h-288.9c-17.2 0-31.2-14-31.2-31.2v-156.5h351.3v156.5c0 17.2-14 31.2-31.2 31.2z"/><path d="m78.7 135h-27.8c-2.8 0-5 2.2-5 5v29.3c0 2.8 2.2 5 5 5h27.8c2.8 0 5-2.2 5-5v-29.3c0-2.7-2.3-5-5-5zm-5 29.3h-17.8v-19.3h17.8z"/><path d="m141.2 135h-27.8c-2.8 0-5 2.2-5 5v29.3c0 2.8 2.2 5 5 5h27.8c2.8 0 5-2.2 5-5v-29.3c0-2.7-2.2-5-5-5zm-5 29.3h-17.8v-19.3h17.8z"/><path d="m203.8 135h-27.8c-2.8 0-5 2.2-5 5v29.3c0 2.8 2.2 5 5 5h27.8c2.8 0 5-2.2 5-5v-29.3c0-2.7-2.2-5-5-5zm-5 29.3h-17.8v-19.3h17.8z"/><path d="m266.4 135h-27.8c-2.8 0-5 2.2-5 5v29.3c0 2.8 2.2 5 5 5h27.8c2.8 0 5-2.2 5-5v-29.3c0-2.7-2.2-5-5-5zm-5 29.3h-17.8v-19.3h17.8z"/><path d="m329 135h-27.8c-2.8 0-5 2.2-5 5v29.3c0 2.8 2.2 5 5 5h27.8c2.8 0 5-2.2 5-5v-29.3c0-2.7-2.3-5-5-5zm-5 29.3h-17.8v-19.3h17.8z"/><path d="m78.7 189.9h-27.8c-2.8 0-5 2.2-5 5v29.3c0 2.8 2.2 5 5 5h27.8c2.8 0 5-2.2 5-5v-29.3c0-2.8-2.3-5-5-5zm-5 29.3h-17.8v-19.3h17.8z"/><path d="m141.2 189.9h-27.8c-2.8 0-5 2.2-5 5v29.3c0 2.8 2.2 5 5 5h27.8c2.8 0 5-2.2 5-5v-29.3c0-2.8-2.2-5-5-5zm-5 29.3h-17.8v-19.3h17.8z"/><path d="m203.8 189.9h-27.8c-2.8 0-5 2.2-5 5v29.3c0 2.8 2.2 5 5 5h27.8c2.8 0 5-2.2 5-5v-29.3c0-2.8-2.2-5-5-5zm-5 29.3h-17.8v-19.3h17.8z"/><path d="m266.4 189.9h-27.8c-2.8 0-5 2.2-5 5v29.3c0 2.8 2.2 5 5 5h27.8c2.8 0 5-2.2 5-5v-29.3c0-2.8-2.2-5-5-5zm-5 29.3h-17.8v-19.3h17.8z"/><path d="m329 189.9h-27.8c-2.8 0-5 2.2-5 5v29.3c0 2.8 2.2 5 5 5h27.8c2.8 0 5-2.2 5-5v-29.3c0-2.8-2.3-5-5-5zm-5 29.3h-17.8v-19.3h17.8z"/><path d="m78.7 244.8h-27.8c-2.8 0-5 2.2-5 5v29.3c0 2.8 2.2 5 5 5h27.8c2.8 0 5-2.2 5-5v-29.3c0-2.8-2.3-5-5-5zm-5 29.3h-17.8v-19.3h17.8z"/><path d="m141.2 244.8h-27.8c-2.8 0-5 2.2-5 5v29.3c0 2.8 2.2 5 5 5h27.8c2.8 0 5-2.2 5-5v-29.3c0-2.8-2.2-5-5-5zm-5 29.3h-17.8v-19.3h17.8z"/><path d="m203.8 244.8h-27.8c-2.8 0-5 2.2-5 5v29.3c0 2.8 2.2 5 5 5h27.8c2.8 0 5-2.2 5-5v-29.3c0-2.8-2.2-5-5-5zm-5 29.3h-17.8v-19.3h17.8z"/><path d="m266.4 244.8h-27.8c-2.8 0-5 2.2-5 5v29.3c0 2.8 2.2 5 5 5h27.8c2.8 0 5-2.2 5-5v-29.3c0-2.8-2.2-5-5-5zm-5 29.3h-17.8v-19.3h17.8z"/><path d="m329 244.8h-27.8c-2.8 0-5 2.2-5 5v29.3c0 2.8 2.2 5 5 5h27.8c2.8 0 5-2.2 5-5v-29.3c0-2.8-2.3-5-5-5zm-5 29.3h-17.8v-19.3h17.8z"/></g></svg>