<?xml version="1.0" encoding="utf-8"?>
<!-- Generator: Adobe Illustrator 21.0.2, SVG Export Plug-In . SVG Version: 6.00 Build 0)  -->
<svg version="1.1" id="Layer_1" xmlns="http://www.w3.org/2000/svg" xmlns:xlink="http://www.w3.org/1999/xlink" x="0px" y="0px"
	 viewBox="0 0 1574 614" style="enable-background:new 0 0 1574 614;" xml:space="preserve">
<style type="text/css">
	.st0{fill:#FFFFFF;}
</style>
<g>
	<path class="st0" d="M758.4,93.5l-49.1,28.3c-1,0.6-2.3,0.4-3.1-0.5C678.2,90.4,637.7,71,592.7,71c-45,0-85.5,19.4-113.6,50.4
		c-0.8,0.9-2.1,1.1-3.1,0.5l-49.1-28.4c-1.3-0.8-1.7-2.6-0.7-3.8c39.2-48.5,99.2-79.5,166.5-79.5c67.2,0,127.3,31,166.5,79.5
		C760.1,90.9,759.8,92.7,758.4,93.5z"/>
	<g>
		<g>
			<path class="st0" d="M10.5,541.9h23.3c13.6,0,21.8,8.1,21.8,19.7v0.2c0,13.2-10.2,20-23,20H23v17.1H10.5V541.9z M33,570.6
				c6.3,0,9.9-3.7,9.9-8.6v-0.2c0-5.6-3.9-8.6-10.2-8.6H23v17.4H33z"/>
			<path class="st0" d="M77.5,541.5H89l24.4,57.4h-13.1l-5.2-12.8H71l-5.2,12.8H53.1L77.5,541.5z M90.6,575l-7.6-18.5L75.5,575H90.6
				z"/>
			<path class="st0" d="M122.2,541.9h12.5v45.6h28.4v11.4h-40.9V541.9z"/>
			<path class="st0" d="M172.5,541.9H185v45.6h28.4v11.4h-40.9V541.9z"/>
			<path class="st0" d="M223.4,541.9h12.5v56.9h-12.5V541.9z"/>
			<path class="st0" d="M269.7,541.5h11.6l24.4,57.4h-13.1l-5.2-12.8h-24.1l-5.2,12.8h-12.8L269.7,541.5z M282.8,575l-7.6-18.5
				l-7.6,18.5H282.8z"/>
			<path class="st0" d="M320.3,553.5H303v-11.6h47.2v11.6h-17.3v45.4h-12.5V553.5z"/>
			<path class="st0" d="M360.3,541.9h12.5v56.9h-12.5V541.9z"/>
			<path class="st0" d="M382.2,541.9H396l14.9,40.1l14.9-40.1h13.5l-23,57.4h-11.1L382.2,541.9z"/>
			<path class="st0" d="M448,541.9H491V553h-30.5v11.5h26.8v11.1h-26.8v12h30.9v11.1H448V541.9z"/>
		</g>
		<g>
			<path class="st0" d="M527.6,570.5v-0.2c0-16.2,12.2-29.4,29.7-29.4c10.7,0,17.2,3.6,22.5,8.8l-8,9.2c-4.4-4-8.9-6.4-14.6-6.4
				c-9.6,0-16.5,8-16.5,17.7v0.2c0,9.8,6.8,17.9,16.5,17.9c6.5,0,10.5-2.6,15-6.7l8,8.1c-5.9,6.3-12.4,10.2-23.3,10.2
				C540,599.8,527.6,586.9,527.6,570.5z"/>
			<path class="st0" d="M609.6,541.5h11.6l24.4,57.4h-13.1l-5.2-12.8h-24.1l-5.2,12.8h-12.8L609.6,541.5z M622.8,575l-7.6-18.5
				l-7.6,18.5H622.8z"/>
			<path class="st0" d="M654.3,541.9h26c7.2,0,12.8,2,16.6,5.8c3.2,3.2,4.9,7.6,4.9,13v0.2c0,9.2-5,15-12.2,17.7l13.9,20.3h-14.6
				l-12.2-18.2h-9.8v18.2h-12.5V541.9z M679.5,569.6c6.1,0,9.6-3.3,9.6-8.1v-0.2c0-5.4-3.7-8.1-9.8-8.1h-12.4v16.4H679.5z"/>
			<path class="st0" d="M713.1,541.9h42.9V553h-30.5v11.5h26.8v11.1h-26.8v12h30.9v11.1h-43.4V541.9z"/>
		</g>
	</g>
</g>
<g>
	<g>
		<path class="st0" d="M340.4,153.4v-1.2c0-86.2-63.5-142-161.9-142H13c-1.4,0-2.5,1.1-2.5,2.5v423.1c0,1.4,1.1,2.5,2.5,2.5h64.4
			c1.4,0,2.5-1.1,2.5-2.5V298.5h89.9C273.5,298.5,340.4,241.5,340.4,153.4z M80,72.8h92.4c61,0,97.4,30.4,97.4,81.2v1.2
			c0,48.6-39.1,81.2-97.4,81.2H80V72.8z"/>
		<path class="st0" d="M1000.3,10.2H811.2c-1.4,0-2.5,1.1-2.5,2.5v423.1c0,1.4,1.1,2.5,2.5,2.5h195.4c98.6,0,157.5-43.3,157.5-115.9
			v-1.2c0-50.9-25.9-82.5-84-102.4l-2.4-0.8c-2-0.7-2.2-3.5-0.3-4.5l2.2-1.1c40.6-21.1,60.3-51.8,60.3-93.9v-1.2
			c0-27.9-9.2-50.7-28.2-69.6C1087.1,23.2,1048.6,10.2,1000.3,10.2z M876.9,70.9h113.5c50.1,0,80,22,80,58.8v1.2
			c0,39.8-31.2,62.6-85.6,62.6H876.9V70.9z M1094.6,313.2v1.2c0,40.2-31.9,63.2-87.4,63.2H876.9V251.2h124.7
			C1061.6,251.2,1094.6,273.2,1094.6,313.2z"/>
		<path class="st0" d="M1481,438.3h75.9c2.1,0,3.3-2.3,2.1-4l-113.6-159.2l4.8-1.4c64.9-18.7,100.7-64.3,100.7-128.4v-1.2
			c0-36.3-12.1-67.9-35.1-91.4c-28.4-27.8-71-42.5-123.1-42.5h-187.9c-1.4,0-2.5,1.1-2.5,2.5v423.1c0,1.4,1.1,2.5,2.5,2.5h64.4
			c1.4,0,2.5-1.1,2.5-2.5V286.7h101.1L1479,437.3C1479.4,437.9,1480.2,438.3,1481,438.3z M1271.7,72.8h114.8
			c59.5,0,93.6,27.6,93.6,75.6v1.2c0,46.3-36.5,76.2-93,76.2h-115.4V72.8z"/>
		<path class="st0" d="M692.9,247l-35.7-20.6c-1.7-1-1.7-3.4,0-4.4l35.7-20.6c1.2-0.7,1.6-2.2,0.9-3.5L666,149.8
			c-0.7-1.2-2.2-1.6-3.5-0.9l-35.7,20.6c-1.7,1-3.8-0.2-3.8-2.2v-41.2c0-1.4-1.1-2.5-2.5-2.5h-55.7c-1.4,0-2.5,1.1-2.5,2.5v41.2
			c0,1.9-2.1,3.2-3.8,2.2l-35.7-20.6c-1.2-0.7-2.8-0.3-3.5,0.9L491.5,198c-0.7,1.2-0.3,2.8,0.9,3.5l35.7,20.6c1.7,1,1.7,3.4,0,4.4
			L492.5,247c-1.2,0.7-1.6,2.2-0.9,3.5l27.9,48.3c0.7,1.2,2.2,1.6,3.5,0.9l35.7-20.6c1.7-1,3.8,0.2,3.8,2.2v41.2
			c0,1.4,1.1,2.5,2.5,2.5h55.7c1.4,0,2.5-1.1,2.5-2.5v-41.2c0-1.9,2.1-3.2,3.8-2.2l35.7,20.6c1.2,0.7,2.8,0.3,3.5-0.9l27.9-48.3
			C694.5,249.3,694.1,247.7,692.9,247z"/>
		<path class="st0" d="M759.2,358.9c-41.1,50.8-104.9,82.4-176,79.3c-112.2-4.9-202.5-97.7-204.5-210c-0.5-28.5,4.6-55.8,14.2-80.8
			c0.6-1.5,2.3-2.1,3.6-1.3l49.1,28.4c1,0.6,1.5,1.8,1.1,2.9c-5.3,16.4-7.9,34.1-7.2,52.4c2.7,78,64.9,142.3,142.7,147.5
			c49.2,3.3,93.8-16.7,124-50c0.8-0.9,2.1-1.1,3.1-0.5l49.1,28.4C759.8,355.8,760.1,357.7,759.2,358.9z"/>
	</g>
	<g>
		<path class="st0" d="M792.6,570.5v-0.2c0-16,12.4-29.4,29.9-29.4c17.5,0,29.7,13.3,29.7,29.3v0.2c0,16-12.4,29.4-29.9,29.4
			S792.6,586.6,792.6,570.5z M841.7,570.5v-0.2c0-11.1-8.1-20.3-19.4-20.3s-19.2,9-19.2,20.1v0.2c0,11.1,8.1,20.2,19.4,20.2
			C833.8,590.5,841.7,581.6,841.7,570.5z"/>
		<path class="st0" d="M864.3,541.9h42.4v9.1h-32.4v15.5H903v9.1h-28.7v23.2h-10V541.9z"/>
	</g>
	<g>
		<path class="st0" d="M943.2,541.9h25.5c6.5,0,11.6,1.8,14.9,5c2.5,2.5,3.8,5.6,3.8,9.4v0.2c0,6.8-3.9,10.5-8.1,12.7
			c6.7,2.3,11.3,6.1,11.3,13.8v0.2c0,10.2-8.4,15.6-21.1,15.6h-26.4V541.9z M977.4,558c0-4.5-3.6-7.2-10-7.2H953v15.1h13.7
			c6.4,0,10.7-2.5,10.7-7.7V558z M968.9,574.4H953V590h16.6c6.8,0,11-2.7,11-7.8V582C980.6,577.2,976.7,574.4,968.9,574.4z"/>
		<path class="st0" d="M1022,541.5h9.3l25.1,57.4h-10.6l-5.8-13.7h-26.9l-5.9,13.7H997L1022,541.5z M1036.3,576.2l-9.8-22.8
			l-9.8,22.8H1036.3z"/>
		<path class="st0" d="M1071.8,551.2h-18.1v-9.3h46.2v9.3h-18.1v47.7h-10.1V551.2z"/>
		<path class="st0" d="M1106.1,570.5v-0.2c0-16,12.4-29.4,29.9-29.4s29.7,13.3,29.7,29.3v0.2c0,16-12.4,29.4-29.9,29.4
			S1106.1,586.6,1106.1,570.5z M1155.2,570.5v-0.2c0-11.1-8.1-20.3-19.4-20.3s-19.2,9-19.2,20.1v0.2c0,11.1,8.1,20.2,19.4,20.2
			S1155.2,581.6,1155.2,570.5z"/>
		<path class="st0" d="M1177.5,541.9h9.3l30.5,39.4v-39.4h9.8v56.9h-8.4l-31.4-40.5v40.5h-9.8V541.9z"/>
	</g>
	<g>
		<path class="st0" d="M1263.6,541.9h25.4c7.2,0,12.8,2.1,16.4,5.7c3,3.1,4.7,7.3,4.7,12.3v0.2c0,9.4-5.6,15-13.5,17.2l15.4,21.6
			h-11.9l-14-19.8h-12.5v19.8h-10V541.9z M1288.3,570.1c7.2,0,11.7-3.7,11.7-9.5v-0.2c0-6.1-4.4-9.4-11.8-9.4h-14.6v19.1H1288.3z"/>
		<path class="st0" d="M1319.9,570.5v-0.2c0-16,12.4-29.4,29.9-29.4s29.7,13.3,29.7,29.3v0.2c0,16-12.4,29.4-29.9,29.4
			S1319.9,586.6,1319.9,570.5z M1368.9,570.5v-0.2c0-11.1-8.1-20.3-19.4-20.3s-19.2,9-19.2,20.1v0.2c0,11.1,8.1,20.2,19.4,20.2
			S1368.9,581.6,1368.9,570.5z"/>
		<path class="st0" d="M1391.6,574.7v-32.8h10v32.4c0,10.6,5.5,16.2,14.4,16.2c8.9,0,14.3-5.3,14.3-15.8v-32.8h10v32.3
			c0,17-9.6,25.5-24.5,25.5C1401,599.7,1391.6,591.2,1391.6,574.7z"/>
		<path class="st0" d="M1451.5,570.5v-0.2c0-15.9,12.2-29.4,29.4-29.4c9.9,0,16,2.8,21.9,7.7l-6.3,7.6c-4.4-3.7-8.7-6.1-15.9-6.1
			c-10.5,0-18.5,9.2-18.5,20.1v0.2c0,11.7,7.7,20.3,19.4,20.3c5.4,0,10.2-1.7,13.7-4.3v-10.7h-14.6V567h24.2V591
			c-5.6,4.8-13.7,8.9-23.8,8.9C1463.2,599.8,1451.5,587.1,1451.5,570.5z"/>
		<path class="st0" d="M1516.8,541.9h42.2v8.9h-32.2v14.8h28.6v8.9h-28.6v15.3h32.6v8.9h-42.6V541.9z"/>
	</g>
</g>
</svg>
