<?xml version="1.0" encoding="utf-8"?>
<!-- Generator: Adobe Illustrator 21.0.2, SVG Export Plug-In . SVG Version: 6.00 Build 0)  -->
<svg version="1.1" id="Layer_1" xmlns="http://www.w3.org/2000/svg" xmlns:xlink="http://www.w3.org/1999/xlink" x="0px" y="0px"
	 viewBox="0 0 2208 860" style="enable-background:new 0 0 2208 860;" xml:space="preserve">
<style type="text/css">
	.st0{fill:#4AC9E3;}
	.st1{fill:#074F71;}
</style>
<g>
	<path class="st0" d="M1065.8,135l-68.7,39.6c-1.4,0.8-3.2,0.5-4.4-0.7c-39.3-43.3-95.9-70.4-158.9-70.4
		c-63,0-119.6,27.2-158.9,70.5c-1.1,1.2-2.9,1.5-4.4,0.7L602,135c-1.9-1.1-2.4-3.6-1-5.3C655.9,61.9,739.9,18.5,833.9,18.5
		c94.1,0,178,43.4,232.9,111.2C1068.2,131.4,1067.7,134,1065.8,135z M19.4,842.1h17.5v-23.9h13.3c17.9,0,32.2-9.6,32.2-28V790
		c0-16.3-11.5-27.5-30.5-27.5H19.4V842.1z M36.9,802.6v-24.4h13.5c8.8,0,14.2,4.2,14.2,12.1v0.2c0,6.8-5.1,12.1-13.9,12.1H36.9z
		 M78.9,842.1h17.9l7.3-17.9h33.7l7.3,17.9h18.3l-34.1-80.2h-16.2L78.9,842.1z M110.3,808.8l10.6-25.8l10.6,25.8H110.3z
		 M175.6,842.1h57.2v-15.9h-39.7v-63.7h-17.5V842.1z M246,842.1h57.2v-15.9h-39.7v-63.7H246V842.1z M317.2,842.1h17.5v-79.7h-17.5
		V842.1z M347.8,842.1h17.9l7.3-17.9h33.7l7.3,17.9h18.3l-34.1-80.2H382L347.8,842.1z M379.3,808.8l10.6-25.8l10.6,25.8H379.3z
		 M452.9,842.1h17.5v-63.5h24.2v-16.2h-66v16.2h24.2V842.1z M508.8,842.1h17.5v-79.7h-17.5V842.1z M571.6,842.7h15.5l32.2-80.2
		h-18.9l-20.8,56.1l-20.8-56.1h-19.4L571.6,842.7z M631.6,842.1h60.7v-15.6H649v-16.7h37.6v-15.6H649V778h42.7v-15.6h-60.1V842.1z
		 M783.7,843.5c15.4,0,24.5-5.5,32.7-14.2L805.2,818c-6.3,5.7-11.8,9.3-20.9,9.3c-13.7,0-23.1-11.4-23.1-25v-0.2
		c0-13.7,9.7-24.8,23.1-24.8c8,0,14.2,3.4,20.4,9l11.2-12.9c-7.4-7.3-16.4-12.3-31.4-12.3c-24.5,0-41.5,18.6-41.5,41.2v0.2
		C742.8,825.4,760.3,843.5,783.7,843.5z M823.5,842.1h17.9l7.3-17.9h33.7l7.3,17.9h18.3l-34.1-80.2h-16.2L823.5,842.1z M854.9,808.8
		l10.6-25.8l10.6,25.8H854.9z M920.2,842.1h17.5v-25.5h13.8l17.1,25.5H989l-19.5-28.5c10.1-3.8,17.1-11.8,17.1-24.7v-0.2
		c0-7.5-2.4-13.8-6.8-18.2c-5.2-5.2-13.1-8.1-23.2-8.1h-36.4V842.1z M937.7,801.2v-22.9h17.4c8.5,0,13.8,3.9,13.8,11.4v0.2
		c0,6.7-4.9,11.3-13.4,11.3H937.7z M1002.4,842.1h60.7v-15.6h-43.3v-16.7h37.6v-15.6h-37.6V778h42.7v-15.6h-60.1V842.1z"/>
	<path class="st1" d="M481,218.9v-1.7c0-120.7-88.9-198.6-226.5-198.6H22.9c-2,0-3.5,1.6-3.5,3.5v592c0,2,1.6,3.5,3.5,3.5H113
		c2,0,3.5-1.6,3.5-3.5V421.9h125.8C387.3,421.9,481,342.2,481,218.9z M116.6,106.1h129.3c85.3,0,136.2,42.5,136.2,113.6v1.7
		c0,68-54.8,113.6-136.2,113.6H116.6V106.1z M1404.3,18.5h-264.7c-2,0-3.5,1.6-3.5,3.5v592c0,2,1.6,3.5,3.5,3.5H1413
		c138,0,220.4-60.6,220.4-162.1v-1.7c0-71.3-36.3-115.4-117.6-143.2l-3.3-1.1c-2.8-1-3.1-4.9-0.5-6.3l3.1-1.6
		c56.7-29.5,84.3-72.4,84.3-131.3v-1.7c0-39-12.9-70.9-39.4-97.4C1525.7,36.7,1471.8,18.5,1404.3,18.5z M1231.5,103.5h158.9
		c70.1,0,111.9,30.8,111.9,82.3v1.7c0,55.6-43.6,87.5-119.7,87.5h-151V103.5z M1536.2,442.4v1.7c0,56.2-44.6,88.4-122.3,88.4h-182.3
		V355.7H1406C1490,355.7,1536.2,386.5,1536.2,442.4z M2076.8,617.6h106.2c2.9,0,4.5-3.2,2.9-5.6L2027,389.2l6.7-1.9
		c90.8-26.2,140.8-90,140.8-179.7v-1.7c0-50.7-17-95-49.1-127.9c-39.7-38.8-99.3-59.4-172.2-59.4h-262.9c-2,0-3.5,1.6-3.5,3.5v592
		c0,2,1.6,3.5,3.5,3.5h90.1c2,0,3.5-1.6,3.5-3.5V405.3h141.4L2074,616.1C2074.6,617,2075.7,617.6,2076.8,617.6z M1784,106.1h160.6
		c83.3,0,131,38.6,131,105.8v1.7c0,64.8-51.1,106.7-130.2,106.7H1784V106.1z M975.4,354.7l-39,67.5c-1,1.7-3.1,2.3-4.8,1.3
		l-49.9-28.8c-2.4-1.4-5.3,0.3-5.3,3.1v57.6c0,2-1.6,3.5-3.5,3.5h-78c-2,0-3.5-1.6-3.5-3.5v-57.6c0-2.7-2.9-4.4-5.3-3.1l-49.9,28.8
		c-1.7,1-3.9,0.4-4.8-1.3l-39-67.5c-1-1.7-0.4-3.9,1.3-4.8l49.9-28.8c2.4-1.4,2.4-4.8,0-6.1l-49.9-28.8c-1.7-1-2.3-3.1-1.3-4.8
		l39-67.5c1-1.7,3.1-2.3,4.8-1.3l49.9,28.8c2.4,1.4,5.3-0.3,5.3-3.1v-57.6c0-2,1.6-3.5,3.5-3.5h78c2,0,3.5,1.6,3.5,3.5v57.6
		c0,2.7,2.9,4.4,5.3,3.1l49.9-28.8c1.7-1,3.9-0.4,4.8,1.3l39,67.5c1,1.7,0.4,3.9-1.3,4.8L924.3,315c-2.4,1.4-2.4,4.8,0,6.1
		l49.9,28.8C975.8,350.9,976.4,353,975.4,354.7z M1066.9,506.4c-57.5,71.1-146.8,115.2-246.3,110.9
		c-157-6.8-283.3-136.6-286.1-293.8c-0.7-39.9,6.4-78.1,19.8-113.1c0.8-2,3.2-2.9,5.1-1.8l68.7,39.7c1.4,0.8,2.1,2.5,1.6,4.1
		c-7.4,23-11,47.7-10.1,73.3c3.8,109.1,90.8,199.1,199.7,206.3c68.8,4.6,131.3-23.3,173.5-70c1.1-1.2,2.9-1.5,4.4-0.7l68.7,39.7
		C1067.7,502.1,1068.2,504.7,1066.9,506.4z M1113.7,802.5v-0.2c0-22.4,17.3-41.2,41.8-41.2s41.5,18.6,41.5,41v0.2
		c0,22.4-17.3,41.2-41.8,41.2S1113.7,824.9,1113.7,802.5z M1182.3,802.5v-0.2c0-15.5-11.3-28.3-27.1-28.3s-26.9,12.6-26.9,28.1v0.2
		c0,15.5,11.3,28.2,27.1,28.2S1182.3,818,1182.3,802.5z M1213.9,762.4h59.3v12.7h-45.3v21.7h40.2v12.7h-40.2v32.4h-14V762.4z
		 M1324.3,762.4h35.7c9.1,0,16.3,2.5,20.8,7.1c3.5,3.5,5.4,7.9,5.4,13.2v0.2c0,9.6-5.5,14.7-11.4,17.8c9.3,3.2,15.8,8.5,15.8,19.3
		v0.2c0,14.2-11.7,21.9-29.5,21.9h-36.9V762.4z M1372.2,785c0-6.3-5-10.1-14-10.1H1338V796h19.1c9,0,15-3.5,15-10.8V785z
		 M1360.2,807.9H1338v21.9h23.2c9.6,0,15.4-3.8,15.4-10.9v-0.2C1376.6,811.9,1371.3,807.9,1360.2,807.9z M1434.6,761.9h13l35.1,80.2
		h-14.8l-8.1-19.2h-37.7l-8.2,19.2h-14.3L1434.6,761.9z M1454.7,810.5l-13.8-31.9l-13.7,31.9H1454.7z M1504.2,775.4h-25.3v-13h64.7
		v13h-25.3v66.7h-14.1V775.4z M1552.3,802.5v-0.2c0-22.4,17.3-41.2,41.8-41.2s41.5,18.6,41.5,41v0.2c0,22.4-17.3,41.2-41.8,41.2
		C1569.4,843.5,1552.3,824.9,1552.3,802.5z M1620.9,802.5v-0.2c0-15.5-11.3-28.3-27.1-28.3s-26.9,12.6-26.9,28.1v0.2
		c0,15.5,11.3,28.2,27.1,28.2S1620.9,818,1620.9,802.5z M1652.1,762.4h13l42.7,55.1v-55.1h13.8v79.7h-11.7l-43.9-56.7v56.7h-13.8
		V762.4z M1772.6,762.4h35.5c10,0,17.9,3,23,8c4.2,4.3,6.6,10.2,6.6,17.2v0.2c0,13.1-7.9,20.9-18.9,24.1l21.5,30.2h-16.6l-19.6-27.8
		h-17.5v27.8h-14V762.4z M1807.1,801.9c10,0,16.4-5.2,16.4-13.3v-0.2c0-8.5-6.1-13.2-16.5-13.2h-20.4v26.8H1807.1z M1851.4,802.5
		v-0.2c0-22.4,17.3-41.2,41.8-41.2c24.5,0,41.5,18.6,41.5,41v0.2c0,22.4-17.3,41.2-41.8,41.2
		C1868.4,843.5,1851.4,824.9,1851.4,802.5z M1920,802.5v-0.2c0-15.5-11.3-28.3-27.1-28.3s-26.9,12.6-26.9,28.1v0.2
		c0,15.5,11.3,28.2,27.1,28.2C1908.9,830.5,1920,818,1920,802.5z M1951.7,808.3v-45.9h14v45.3c0,14.8,7.6,22.7,20.1,22.7
		c12.4,0,20-7.4,20-22.1v-45.9h14v45.2c0,23.8-13.4,35.7-34.3,35.7C1964.9,843.4,1951.7,831.4,1951.7,808.3z M2035.5,802.5v-0.2
		c0-22.3,17.1-41.2,41.1-41.2c13.9,0,22.4,3.9,30.6,10.8l-8.9,10.6c-6.1-5.2-12.2-8.5-22.3-8.5c-14.7,0-25.8,12.9-25.8,28.1v0.2
		c0,16.4,10.8,28.5,27.1,28.5c7.5,0,14.3-2.4,19.2-6v-14.9h-20.4v-12.2h33.9v33.5c-7.9,6.7-19.1,12.4-33.2,12.4
		C2051.9,843.5,2035.5,825.7,2035.5,802.5z M2126.9,762.4h59.1V775h-45.1v20.7h40v12.5h-40v21.4h45.6v12.5h-59.6V762.4z"/>
</g>
</svg>
