<svg enable-background="new 0 0 757.1 347.7" viewBox="0 0 757.1 347.7" xmlns="http://www.w3.org/2000/svg"><path d="m255.6 36.4-1.1 2.2c-1.2-.7-2.7-1.2-3.6-1.2-.7 0-1.2.3-1.2.8 0 1.9 5.9.8 5.9 4.9 0 2.2-2 3.4-4.5 3.4-1.9 0-3.8-.7-5.1-1.8l1.1-2.2c1.2 1 2.9 1.7 4 1.7.9 0 1.5-.3 1.5-1 0-2-5.9-.8-5.9-4.8 0-2.1 1.8-3.4 4.5-3.4 1.6.1 3.3.6 4.4 1.4zm14.5.6-1.6 2c-.7-.9-1.8-1.5-2.8-1.5-1.8 0-3.1 1.4-3.1 3.2 0 1.9 1.3 3.3 3.1 3.3.9 0 2-.5 2.8-1.3l1.7 1.8c-1.2 1.2-3 2-4.6 2-3.4 0-5.9-2.5-5.9-5.8 0-3.2 2.6-5.7 6-5.7 1.6.2 3.3.9 4.4 2zm9.6 6.3h-2.2v3.2h-2.8v-11.2h5c3 0 4.7 1.4 4.7 3.9 0 1.7-.7 2.9-2 3.6l2.4 3.7h-3.2zm-.1-2.2c1.2 0 2-.6 2-1.8s-.7-1.8-2-1.8h-2.2v3.6zm21.2-.3c0 3.3-2.6 5.7-6.1 5.7s-6-2.5-6-5.7c0-3.3 2.6-5.7 6-5.7 3.5.1 6.1 2.5 6.1 5.7zm-9.2.1c0 1.9 1.5 3.3 3.2 3.3s3.1-1.5 3.1-3.3c0-1.9-1.4-3.3-3.1-3.3-1.8-.1-3.2 1.4-3.2 3.3zm21.5 3.2v2.4h-7.6v-11.2h2.8v8.8zm12.1 0v2.4h-7.6v-11.2h2.8v8.8zm16.6-6.6v8.9h-2.8v-8.9h-3.3v-2.3h9.6v2.3zm18.6 3.3c0 3.3-2.6 5.7-6.1 5.7s-6-2.5-6-5.7c0-3.3 2.6-5.7 6-5.7 3.5.1 6.1 2.5 6.1 5.7zm-9.2.1c0 1.9 1.5 3.3 3.2 3.3s3.1-1.5 3.1-3.3c0-1.9-1.4-3.3-3.1-3.3-1.7-.1-3.2 1.4-3.2 3.3zm28.4 3.2v2.4h-7.6v-11.2h2.8v8.8zm7.4-6.6v2.2h5.3v2.3h-5.3v2.3h6.1v2.2h-8.9v-11.2h8.8v2.2zm13.7 6.9-.8 2.1h-2.9l4.8-11.2h2.9l4.7 11.2h-3l-.8-2.1zm2.5-6.3-1.6 4.1h3.2zm15.6 5.2h-2.2v3.2h-2.8v-11.2h5c3 0 4.7 1.4 4.7 3.9 0 1.7-.7 2.9-2 3.6l2.4 3.7h-3.2zm-.1-2.2c1.2 0 2-.6 2-1.8s-.7-1.8-2-1.8h-2.2v3.6zm17.6 5.4-5.1-6.9v6.9h-2.7v-11.2h2.5l5.2 6.9v-6.9h2.7v11.2zm24.6 0v-7.3l-2.7 6.2h-1.9l-2.7-6.2v7.3h-2.5v-11.3h3.1l3 6.7 3-6.7h3.1v11.2h-2.4zm19.3-5.7c0 3.3-2.6 5.7-6.1 5.7s-6-2.5-6-5.7c0-3.3 2.6-5.7 6-5.7 3.5.1 6.1 2.5 6.1 5.7zm-9.2.1c0 1.9 1.5 3.3 3.2 3.3s3.1-1.5 3.1-3.3c0-1.9-1.4-3.3-3.1-3.3-1.7-.1-3.2 1.4-3.2 3.3zm19 2.4h-2.2v3.2h-2.8v-11.2h5c3 0 4.7 1.4 4.7 3.9 0 1.7-.7 2.9-2 3.6l2.4 3.7h-3.2zm-.1-2.2c1.2 0 2-.6 2-1.8s-.7-1.8-2-1.8h-2.2v3.6zm12.6-3.6v2.2h5.3v2.3h-5.3v2.3h6.1v2.2h-8.9v-11.2h8.8v2.2zm-491.5-37.5h-11v347.7h11zm746.1 0h-11v347.7h11zm-378.5 90.3c-10.3 0-18.7 8.4-18.7 18.7v23.8c0 10.1 8.1 18.4 18.1 18.7v197.5h2.7v-197.5c9.4-1 16.7-9 16.7-18.6v-23.8c-.1-10.4-8.5-18.8-18.8-18.8zm16 42.5c0 8.9-7.2 16.1-16.1 16.1s-16.1-7.2-16.1-16.1v-23.8c0-8.9 7.2-16.1 16.1-16.1s16.1 7.2 16.1 16.1zm-14.7-21v-8.5c0-.7-.6-1.3-1.3-1.3s-1.3.6-1.3 1.3v8.5c0 .7.6 1.3 1.3 1.3s1.3-.6 1.3-1.3z" fill="#fff"/></svg>